STARTFONT 2.1
FONT -Fondu-Espy Sans Bold-Medium-R-Normal--9-90-75-75-P-61-MacRoman-1
SIZE 9 75 75
FONTBOUNDINGBOX 17 12 -1 -2
COMMENT Created by Fondu from a mac NFNT/FONT resource
STARTPROPERTIES 17
FOUNDRY "Fondu"
FAMILY_NAME "Espy Sans Bold"
WEIGHT_NAME "Medium"
SLANT "R"
SETWIDTH_NAME "Normal"
ADD_STYLE_NAME ""
PIXEL_SIZE 9
POINT_SIZE 90
RESOLUTION_X 75
RESOLUTION_Y 75
SPACING "P"
AVERAGE_WIDTH 61
CHARSET_REGISTRY "MacRoman"
CHARSET_ENCODING "1"
FONT_ASCENT 10
FONT_DESCENT 2
FACE_NAME "Espy Sans Bold 9"
ENDPROPERTIES
CHARS 226
STARTCHAR Eth
ENCODING 1
SWIDTH 0 0
DWIDTH 0 0
BBX 0 0 -1 -2
BITMAP
ENDCHAR
STARTCHAR eth
ENCODING 2
SWIDTH 0 0
DWIDTH 0 0
BBX 0 0 -1 -2
BITMAP
ENDCHAR
STARTCHAR space
ENCODING 32
SWIDTH 222 0
DWIDTH 2 0
BBX 0 0 -1 -2
BITMAP
ENDCHAR
STARTCHAR exclam
ENCODING 33
SWIDTH 333 0
DWIDTH 3 0
BBX 2 7 0 0
BITMAP
C0
C0
C0
C0
C0
00
C0
ENDCHAR
STARTCHAR quotedbl
ENCODING 34
SWIDTH 666 0
DWIDTH 6 0
BBX 5 3 0 5
BITMAP
D8
D8
48
ENDCHAR
STARTCHAR numbersign
ENCODING 35
SWIDTH 1111 0
DWIDTH 10 0
BBX 9 7 0 0
BITMAP
1B00
1B00
7F80
3600
FF00
6C00
6C00
ENDCHAR
STARTCHAR dollar
ENCODING 36
SWIDTH 666 0
DWIDTH 6 0
BBX 5 9 0 -1
BITMAP
20
78
A0
E0
70
38
28
F0
20
ENDCHAR
STARTCHAR percent
ENCODING 37
SWIDTH 1444 0
DWIDTH 13 0
BBX 12 7 0 0
BITMAP
70C0
D980
DB00
76E0
0DB0
19B0
30E0
ENDCHAR
STARTCHAR ampersand
ENCODING 38
SWIDTH 1000 0
DWIDTH 9 0
BBX 8 7 0 0
BITMAP
38
6C
38
7B
CE
CE
7B
ENDCHAR
STARTCHAR quotesingle
ENCODING 39
SWIDTH 333 0
DWIDTH 3 0
BBX 2 3 0 5
BITMAP
C0
C0
40
ENDCHAR
STARTCHAR parenleft
ENCODING 40
SWIDTH 555 0
DWIDTH 5 0
BBX 4 9 0 -1
BITMAP
30
60
40
C0
C0
C0
40
60
30
ENDCHAR
STARTCHAR parenright
ENCODING 41
SWIDTH 555 0
DWIDTH 5 0
BBX 4 9 0 -1
BITMAP
C0
60
20
30
30
30
20
60
C0
ENDCHAR
STARTCHAR asterisk
ENCODING 42
SWIDTH 666 0
DWIDTH 6 0
BBX 5 5 0 3
BITMAP
50
20
F8
20
50
ENDCHAR
STARTCHAR plus
ENCODING 43
SWIDTH 666 0
DWIDTH 6 0
BBX 5 5 0 1
BITMAP
20
20
F8
20
20
ENDCHAR
STARTCHAR comma
ENCODING 44
SWIDTH 333 0
DWIDTH 3 0
BBX 2 3 0 -2
BITMAP
C0
40
80
ENDCHAR
STARTCHAR hyphen
ENCODING 45
SWIDTH 444 0
DWIDTH 4 0
BBX 3 1 0 3
BITMAP
E0
ENDCHAR
STARTCHAR period
ENCODING 46
SWIDTH 333 0
DWIDTH 3 0
BBX 2 1 0 0
BITMAP
C0
ENDCHAR
STARTCHAR slash
ENCODING 47
SWIDTH 666 0
DWIDTH 6 0
BBX 5 7 0 0
BITMAP
18
18
30
60
60
C0
C0
ENDCHAR
STARTCHAR zero
ENCODING 48
SWIDTH 777 0
DWIDTH 7 0
BBX 6 7 0 0
BITMAP
78
CC
CC
CC
CC
CC
78
ENDCHAR
STARTCHAR one
ENCODING 49
SWIDTH 777 0
DWIDTH 7 0
BBX 3 7 1 0
BITMAP
60
E0
60
60
60
60
60
ENDCHAR
STARTCHAR two
ENCODING 50
SWIDTH 777 0
DWIDTH 7 0
BBX 6 7 0 0
BITMAP
78
CC
0C
38
60
C0
FC
ENDCHAR
STARTCHAR three
ENCODING 51
SWIDTH 777 0
DWIDTH 7 0
BBX 6 7 0 0
BITMAP
78
CC
0C
38
0C
CC
78
ENDCHAR
STARTCHAR four
ENCODING 52
SWIDTH 777 0
DWIDTH 7 0
BBX 6 7 0 0
BITMAP
18
38
58
98
FC
18
18
ENDCHAR
STARTCHAR five
ENCODING 53
SWIDTH 666 0
DWIDTH 6 0
BBX 5 7 0 0
BITMAP
F8
C0
C0
F0
18
18
F0
ENDCHAR
STARTCHAR six
ENCODING 54
SWIDTH 777 0
DWIDTH 7 0
BBX 6 7 0 0
BITMAP
38
60
C0
F8
CC
CC
78
ENDCHAR
STARTCHAR seven
ENCODING 55
SWIDTH 777 0
DWIDTH 7 0
BBX 6 7 0 0
BITMAP
FC
0C
18
18
30
30
30
ENDCHAR
STARTCHAR eight
ENCODING 56
SWIDTH 777 0
DWIDTH 7 0
BBX 6 7 0 0
BITMAP
78
CC
CC
78
CC
CC
78
ENDCHAR
STARTCHAR nine
ENCODING 57
SWIDTH 777 0
DWIDTH 7 0
BBX 6 7 0 0
BITMAP
78
CC
CC
7C
0C
18
70
ENDCHAR
STARTCHAR colon
ENCODING 58
SWIDTH 333 0
DWIDTH 3 0
BBX 2 5 0 0
BITMAP
C0
00
00
00
C0
ENDCHAR
STARTCHAR semicolon
ENCODING 59
SWIDTH 333 0
DWIDTH 3 0
BBX 2 7 0 -2
BITMAP
C0
00
00
00
C0
40
80
ENDCHAR
STARTCHAR less
ENCODING 60
SWIDTH 666 0
DWIDTH 6 0
BBX 5 5 0 1
BITMAP
08
30
C0
30
08
ENDCHAR
STARTCHAR equal
ENCODING 61
SWIDTH 666 0
DWIDTH 6 0
BBX 5 3 0 2
BITMAP
F8
00
F8
ENDCHAR
STARTCHAR greater
ENCODING 62
SWIDTH 666 0
DWIDTH 6 0
BBX 5 5 0 1
BITMAP
80
60
18
60
80
ENDCHAR
STARTCHAR question
ENCODING 63
SWIDTH 666 0
DWIDTH 6 0
BBX 5 7 0 0
BITMAP
F0
18
30
60
60
00
60
ENDCHAR
STARTCHAR at
ENCODING 64
SWIDTH 1222 0
DWIDTH 11 0
BBX 9 7 0 -1
BITMAP
3E00
6300
CD80
D580
CB00
6000
3C00
ENDCHAR
STARTCHAR A
ENCODING 65
SWIDTH 888 0
DWIDTH 8 0
BBX 7 7 0 0
BITMAP
38
38
6C
6C
7C
C6
C6
ENDCHAR
STARTCHAR B
ENCODING 66
SWIDTH 777 0
DWIDTH 7 0
BBX 6 7 0 0
BITMAP
F8
CC
CC
F8
CC
CC
F8
ENDCHAR
STARTCHAR C
ENCODING 67
SWIDTH 777 0
DWIDTH 7 0
BBX 6 7 0 0
BITMAP
3C
60
C0
C0
C0
60
3C
ENDCHAR
STARTCHAR D
ENCODING 68
SWIDTH 888 0
DWIDTH 8 0
BBX 7 7 0 0
BITMAP
F8
CC
C6
C6
C6
CC
F8
ENDCHAR
STARTCHAR E
ENCODING 69
SWIDTH 666 0
DWIDTH 6 0
BBX 5 7 0 0
BITMAP
F8
C0
C0
F0
C0
C0
F8
ENDCHAR
STARTCHAR F
ENCODING 70
SWIDTH 555 0
DWIDTH 5 0
BBX 5 7 0 0
BITMAP
F8
C0
C0
F0
C0
C0
C0
ENDCHAR
STARTCHAR G
ENCODING 71
SWIDTH 888 0
DWIDTH 8 0
BBX 7 7 0 0
BITMAP
3C
60
C0
CE
C6
66
3C
ENDCHAR
STARTCHAR H
ENCODING 72
SWIDTH 888 0
DWIDTH 8 0
BBX 7 7 0 0
BITMAP
C6
C6
C6
FE
C6
C6
C6
ENDCHAR
STARTCHAR I
ENCODING 73
SWIDTH 333 0
DWIDTH 3 0
BBX 2 7 0 0
BITMAP
C0
C0
C0
C0
C0
C0
C0
ENDCHAR
STARTCHAR J
ENCODING 74
SWIDTH 555 0
DWIDTH 5 0
BBX 4 7 0 0
BITMAP
30
30
30
30
30
30
E0
ENDCHAR
STARTCHAR K
ENCODING 75
SWIDTH 777 0
DWIDTH 7 0
BBX 6 7 0 0
BITMAP
CC
D8
F0
E0
F0
D8
CC
ENDCHAR
STARTCHAR L
ENCODING 76
SWIDTH 666 0
DWIDTH 6 0
BBX 5 7 0 0
BITMAP
C0
C0
C0
C0
C0
C0
F8
ENDCHAR
STARTCHAR M
ENCODING 77
SWIDTH 1111 0
DWIDTH 10 0
BBX 9 7 0 0
BITMAP
E380
E380
B580
B580
9980
9980
9980
ENDCHAR
STARTCHAR N
ENCODING 78
SWIDTH 777 0
DWIDTH 7 0
BBX 6 7 0 0
BITMAP
C4
E4
F4
BC
9C
8C
84
ENDCHAR
STARTCHAR O
ENCODING 79
SWIDTH 1000 0
DWIDTH 9 0
BBX 8 7 0 0
BITMAP
3C
66
C3
C3
C3
66
3C
ENDCHAR
STARTCHAR P
ENCODING 80
SWIDTH 777 0
DWIDTH 7 0
BBX 6 7 0 0
BITMAP
F8
CC
CC
F8
C0
C0
C0
ENDCHAR
STARTCHAR Q
ENCODING 81
SWIDTH 1000 0
DWIDTH 9 0
BBX 8 8 0 -1
BITMAP
3C
66
C3
C3
C3
66
3C
07
ENDCHAR
STARTCHAR R
ENCODING 82
SWIDTH 777 0
DWIDTH 7 0
BBX 7 7 0 0
BITMAP
F8
CC
CC
F8
D8
CC
CE
ENDCHAR
STARTCHAR S
ENCODING 83
SWIDTH 666 0
DWIDTH 6 0
BBX 5 7 0 0
BITMAP
78
C0
E0
70
38
18
F0
ENDCHAR
STARTCHAR T
ENCODING 84
SWIDTH 777 0
DWIDTH 7 0
BBX 6 7 0 0
BITMAP
FC
30
30
30
30
30
30
ENDCHAR
STARTCHAR U
ENCODING 85
SWIDTH 777 0
DWIDTH 7 0
BBX 6 7 0 0
BITMAP
C4
C4
C4
C4
C4
EC
78
ENDCHAR
STARTCHAR V
ENCODING 86
SWIDTH 777 0
DWIDTH 7 0
BBX 7 7 0 0
BITMAP
C6
C6
64
6C
68
38
38
ENDCHAR
STARTCHAR W
ENCODING 87
SWIDTH 1111 0
DWIDTH 10 0
BBX 10 7 0 0
BITMAP
CCC0
CC80
6D80
6D80
7700
3300
3300
ENDCHAR
STARTCHAR X
ENCODING 88
SWIDTH 777 0
DWIDTH 7 0
BBX 6 7 0 0
BITMAP
C4
EC
78
30
78
DC
8C
ENDCHAR
STARTCHAR Y
ENCODING 89
SWIDTH 777 0
DWIDTH 7 0
BBX 6 7 0 0
BITMAP
CC
CC
CC
78
30
30
30
ENDCHAR
STARTCHAR Z
ENCODING 90
SWIDTH 777 0
DWIDTH 7 0
BBX 6 7 0 0
BITMAP
FC
1C
38
70
E0
C0
FC
ENDCHAR
STARTCHAR bracketleft
ENCODING 91
SWIDTH 444 0
DWIDTH 4 0
BBX 3 9 0 -1
BITMAP
E0
C0
C0
C0
C0
C0
C0
C0
E0
ENDCHAR
STARTCHAR backslash
ENCODING 92
SWIDTH 666 0
DWIDTH 6 0
BBX 5 7 0 0
BITMAP
C0
C0
60
30
30
18
18
ENDCHAR
STARTCHAR bracketright
ENCODING 93
SWIDTH 444 0
DWIDTH 4 0
BBX 3 9 0 -1
BITMAP
E0
60
60
60
60
60
60
60
E0
ENDCHAR
STARTCHAR asciicircum
ENCODING 94
SWIDTH 666 0
DWIDTH 6 0
BBX 5 5 0 2
BITMAP
20
20
70
50
88
ENDCHAR
STARTCHAR underscore
ENCODING 95
SWIDTH 444 0
DWIDTH 4 0
BBX 5 1 -1 -1
BITMAP
F8
ENDCHAR
STARTCHAR grave
ENCODING 96
SWIDTH 444 0
DWIDTH 4 0
BBX 3 2 0 5
BITMAP
C0
20
ENDCHAR
STARTCHAR a
ENCODING 97
SWIDTH 666 0
DWIDTH 6 0
BBX 5 5 0 0
BITMAP
70
18
78
D8
78
ENDCHAR
STARTCHAR b
ENCODING 98
SWIDTH 666 0
DWIDTH 6 0
BBX 5 7 0 0
BITMAP
C0
C0
F0
D8
D8
D8
F0
ENDCHAR
STARTCHAR c
ENCODING 99
SWIDTH 555 0
DWIDTH 5 0
BBX 4 5 0 0
BITMAP
70
C0
C0
C0
70
ENDCHAR
STARTCHAR d
ENCODING 100
SWIDTH 666 0
DWIDTH 6 0
BBX 5 7 0 0
BITMAP
18
18
78
D8
D8
D8
78
ENDCHAR
STARTCHAR e
ENCODING 101
SWIDTH 666 0
DWIDTH 6 0
BBX 5 5 0 0
BITMAP
70
D8
F8
C0
78
ENDCHAR
STARTCHAR f
ENCODING 102
SWIDTH 555 0
DWIDTH 5 0
BBX 5 7 0 0
BITMAP
38
60
F0
60
60
60
60
ENDCHAR
STARTCHAR g
ENCODING 103
SWIDTH 666 0
DWIDTH 6 0
BBX 5 7 0 -2
BITMAP
78
D8
D8
D8
78
18
70
ENDCHAR
STARTCHAR h
ENCODING 104
SWIDTH 666 0
DWIDTH 6 0
BBX 5 7 0 0
BITMAP
C0
C0
F0
D8
D8
D8
D8
ENDCHAR
STARTCHAR i
ENCODING 105
SWIDTH 333 0
DWIDTH 3 0
BBX 2 7 0 0
BITMAP
C0
00
C0
C0
C0
C0
C0
ENDCHAR
STARTCHAR j
ENCODING 106
SWIDTH 333 0
DWIDTH 3 0
BBX 3 9 -1 -2
BITMAP
60
00
60
60
60
60
60
60
C0
ENDCHAR
STARTCHAR k
ENCODING 107
SWIDTH 666 0
DWIDTH 6 0
BBX 6 7 0 0
BITMAP
C0
C0
D8
F0
F0
D8
CC
ENDCHAR
STARTCHAR l
ENCODING 108
SWIDTH 333 0
DWIDTH 3 0
BBX 2 7 0 0
BITMAP
C0
C0
C0
C0
C0
C0
C0
ENDCHAR
STARTCHAR m
ENCODING 109
SWIDTH 1000 0
DWIDTH 9 0
BBX 8 5 0 0
BITMAP
EE
DB
DB
DB
DB
ENDCHAR
STARTCHAR n
ENCODING 110
SWIDTH 666 0
DWIDTH 6 0
BBX 5 5 0 0
BITMAP
F0
D8
D8
D8
D8
ENDCHAR
STARTCHAR o
ENCODING 111
SWIDTH 666 0
DWIDTH 6 0
BBX 5 5 0 0
BITMAP
70
D8
D8
D8
70
ENDCHAR
STARTCHAR p
ENCODING 112
SWIDTH 666 0
DWIDTH 6 0
BBX 5 7 0 -2
BITMAP
F0
D8
D8
D8
F0
C0
C0
ENDCHAR
STARTCHAR q
ENCODING 113
SWIDTH 666 0
DWIDTH 6 0
BBX 5 7 0 -2
BITMAP
78
D8
D8
D8
78
18
18
ENDCHAR
STARTCHAR r
ENCODING 114
SWIDTH 555 0
DWIDTH 5 0
BBX 4 5 0 0
BITMAP
D0
F0
C0
C0
C0
ENDCHAR
STARTCHAR s
ENCODING 115
SWIDTH 555 0
DWIDTH 5 0
BBX 4 5 0 0
BITMAP
70
C0
F0
30
E0
ENDCHAR
STARTCHAR t
ENCODING 116
SWIDTH 666 0
DWIDTH 6 0
BBX 5 6 0 0
BITMAP
60
F8
60
60
60
38
ENDCHAR
STARTCHAR u
ENCODING 117
SWIDTH 666 0
DWIDTH 6 0
BBX 5 5 0 0
BITMAP
D8
D8
D8
D8
78
ENDCHAR
STARTCHAR v
ENCODING 118
SWIDTH 666 0
DWIDTH 6 0
BBX 5 5 0 0
BITMAP
D8
D8
D8
70
70
ENDCHAR
STARTCHAR w
ENCODING 119
SWIDTH 1000 0
DWIDTH 9 0
BBX 8 5 0 0
BITMAP
DB
DB
DB
7E
66
ENDCHAR
STARTCHAR x
ENCODING 120
SWIDTH 666 0
DWIDTH 6 0
BBX 5 5 0 0
BITMAP
D8
D8
70
D8
D8
ENDCHAR
STARTCHAR y
ENCODING 121
SWIDTH 666 0
DWIDTH 6 0
BBX 5 7 0 -2
BITMAP
D8
D8
D8
70
30
60
C0
ENDCHAR
STARTCHAR z
ENCODING 122
SWIDTH 555 0
DWIDTH 5 0
BBX 4 5 0 0
BITMAP
F0
30
60
C0
F0
ENDCHAR
STARTCHAR braceleft
ENCODING 123
SWIDTH 555 0
DWIDTH 5 0
BBX 4 9 0 -1
BITMAP
30
60
60
60
C0
60
60
60
30
ENDCHAR
STARTCHAR bar
ENCODING 124
SWIDTH 333 0
DWIDTH 3 0
BBX 2 9 0 -1
BITMAP
C0
C0
C0
C0
C0
C0
C0
C0
C0
ENDCHAR
STARTCHAR braceright
ENCODING 125
SWIDTH 555 0
DWIDTH 5 0
BBX 4 9 0 -1
BITMAP
C0
60
60
60
30
60
60
60
C0
ENDCHAR
STARTCHAR asciitilde
ENCODING 126
SWIDTH 777 0
DWIDTH 7 0
BBX 6 3 0 3
BITMAP
64
B4
98
ENDCHAR
STARTCHAR char007f
ENCODING 127
SWIDTH 0 0
DWIDTH 0 0
BBX 0 0 -1 -2
BITMAP
ENDCHAR
STARTCHAR Adieresis
ENCODING 128
SWIDTH 888 0
DWIDTH 8 0
BBX 7 9 0 0
BITMAP
28
00
38
38
6C
6C
7C
C6
C6
ENDCHAR
STARTCHAR Aring
ENCODING 129
SWIDTH 888 0
DWIDTH 8 0
BBX 7 10 0 0
BITMAP
10
28
10
38
38
6C
6C
7C
C6
C6
ENDCHAR
STARTCHAR Ccedilla
ENCODING 130
SWIDTH 777 0
DWIDTH 7 0
BBX 6 9 0 -2
BITMAP
3C
60
C0
C0
C0
60
3C
10
20
ENDCHAR
STARTCHAR Eacute
ENCODING 131
SWIDTH 666 0
DWIDTH 6 0
BBX 5 10 0 0
BITMAP
30
40
00
F8
C0
C0
F0
C0
C0
F8
ENDCHAR
STARTCHAR Ntilde
ENCODING 132
SWIDTH 777 0
DWIDTH 7 0
BBX 6 10 0 0
BITMAP
34
58
00
C4
E4
F4
BC
9C
8C
84
ENDCHAR
STARTCHAR Odieresis
ENCODING 133
SWIDTH 1000 0
DWIDTH 9 0
BBX 8 9 0 0
BITMAP
14
00
3C
66
C3
C3
C3
66
3C
ENDCHAR
STARTCHAR Udieresis
ENCODING 134
SWIDTH 777 0
DWIDTH 7 0
BBX 6 9 0 0
BITMAP
28
00
C4
C4
C4
C4
C4
EC
78
ENDCHAR
STARTCHAR aacute
ENCODING 135
SWIDTH 666 0
DWIDTH 6 0
BBX 5 8 0 0
BITMAP
30
40
00
70
18
78
D8
78
ENDCHAR
STARTCHAR agrave
ENCODING 136
SWIDTH 666 0
DWIDTH 6 0
BBX 5 8 0 0
BITMAP
60
10
00
70
18
78
D8
78
ENDCHAR
STARTCHAR acircumflex
ENCODING 137
SWIDTH 666 0
DWIDTH 6 0
BBX 5 8 0 0
BITMAP
20
50
00
70
18
78
D8
78
ENDCHAR
STARTCHAR adieresis
ENCODING 138
SWIDTH 666 0
DWIDTH 6 0
BBX 5 7 0 0
BITMAP
50
00
70
18
78
D8
78
ENDCHAR
STARTCHAR atilde
ENCODING 139
SWIDTH 666 0
DWIDTH 6 0
BBX 5 8 0 0
BITMAP
68
B0
00
70
18
78
D8
78
ENDCHAR
STARTCHAR aring
ENCODING 140
SWIDTH 666 0
DWIDTH 6 0
BBX 5 8 0 0
BITMAP
20
50
20
70
18
78
D8
78
ENDCHAR
STARTCHAR ccedilla
ENCODING 141
SWIDTH 555 0
DWIDTH 5 0
BBX 4 7 0 -2
BITMAP
70
C0
C0
C0
70
20
40
ENDCHAR
STARTCHAR eacute
ENCODING 142
SWIDTH 666 0
DWIDTH 6 0
BBX 5 8 0 0
BITMAP
10
20
00
70
D8
F8
C0
78
ENDCHAR
STARTCHAR egrave
ENCODING 143
SWIDTH 666 0
DWIDTH 6 0
BBX 5 8 0 0
BITMAP
40
20
00
70
D8
F8
C0
78
ENDCHAR
STARTCHAR ecircumflex
ENCODING 144
SWIDTH 666 0
DWIDTH 6 0
BBX 5 8 0 0
BITMAP
20
50
00
70
D8
F8
C0
78
ENDCHAR
STARTCHAR edieresis
ENCODING 145
SWIDTH 666 0
DWIDTH 6 0
BBX 5 7 0 0
BITMAP
50
00
70
D8
F8
C0
78
ENDCHAR
STARTCHAR iacute
ENCODING 146
SWIDTH 333 0
DWIDTH 3 0
BBX 3 8 0 0
BITMAP
60
80
00
C0
C0
C0
C0
C0
ENDCHAR
STARTCHAR igrave
ENCODING 147
SWIDTH 333 0
DWIDTH 3 0
BBX 3 8 -1 0
BITMAP
C0
20
00
60
60
60
60
60
ENDCHAR
STARTCHAR icircumflex
ENCODING 148
SWIDTH 333 0
DWIDTH 3 0
BBX 3 8 0 0
BITMAP
40
A0
00
C0
C0
C0
C0
C0
ENDCHAR
STARTCHAR idieresis
ENCODING 149
SWIDTH 333 0
DWIDTH 3 0
BBX 3 7 0 0
BITMAP
A0
00
C0
C0
C0
C0
C0
ENDCHAR
STARTCHAR ntilde
ENCODING 150
SWIDTH 666 0
DWIDTH 6 0
BBX 5 8 0 0
BITMAP
68
B0
00
F0
D8
D8
D8
D8
ENDCHAR
STARTCHAR oacute
ENCODING 151
SWIDTH 666 0
DWIDTH 6 0
BBX 5 8 0 0
BITMAP
30
40
00
70
D8
D8
D8
70
ENDCHAR
STARTCHAR ograve
ENCODING 152
SWIDTH 666 0
DWIDTH 6 0
BBX 5 8 0 0
BITMAP
60
10
00
70
D8
D8
D8
70
ENDCHAR
STARTCHAR ocircumflex
ENCODING 153
SWIDTH 666 0
DWIDTH 6 0
BBX 5 8 0 0
BITMAP
20
50
00
70
D8
D8
D8
70
ENDCHAR
STARTCHAR odieresis
ENCODING 154
SWIDTH 666 0
DWIDTH 6 0
BBX 5 7 0 0
BITMAP
50
00
70
D8
D8
D8
70
ENDCHAR
STARTCHAR otilde
ENCODING 155
SWIDTH 666 0
DWIDTH 6 0
BBX 5 8 0 0
BITMAP
68
B0
00
70
D8
D8
D8
70
ENDCHAR
STARTCHAR uacute
ENCODING 156
SWIDTH 666 0
DWIDTH 6 0
BBX 5 8 0 0
BITMAP
30
40
00
D8
D8
D8
D8
78
ENDCHAR
STARTCHAR ugrave
ENCODING 157
SWIDTH 666 0
DWIDTH 6 0
BBX 5 8 0 0
BITMAP
60
10
00
D8
D8
D8
D8
78
ENDCHAR
STARTCHAR ucircumflex
ENCODING 158
SWIDTH 666 0
DWIDTH 6 0
BBX 5 8 0 0
BITMAP
20
50
00
D8
D8
D8
D8
78
ENDCHAR
STARTCHAR udieresis
ENCODING 159
SWIDTH 666 0
DWIDTH 6 0
BBX 5 7 0 0
BITMAP
50
00
D8
D8
D8
D8
78
ENDCHAR
STARTCHAR dagger
ENCODING 160
SWIDTH 888 0
DWIDTH 8 0
BBX 7 7 0 0
BITMAP
44
AA
7C
28
7C
AA
44
ENDCHAR
STARTCHAR degree
ENCODING 161
SWIDTH 555 0
DWIDTH 5 0
BBX 4 4 0 4
BITMAP
60
90
90
60
ENDCHAR
STARTCHAR cent
ENCODING 162
SWIDTH 666 0
DWIDTH 6 0
BBX 5 7 0 -1
BITMAP
10
78
D0
D0
D0
78
10
ENDCHAR
STARTCHAR sterling
ENCODING 163
SWIDTH 777 0
DWIDTH 7 0
BBX 6 7 0 0
BITMAP
38
60
60
F8
60
60
FC
ENDCHAR
STARTCHAR section
ENCODING 164
SWIDTH 888 0
DWIDTH 8 0
BBX 7 7 0 0
BITMAP
10
38
54
EE
54
38
10
ENDCHAR
STARTCHAR bullet
ENCODING 165
SWIDTH 555 0
DWIDTH 5 0
BBX 3 3 0 2
BITMAP
E0
E0
E0
ENDCHAR
STARTCHAR paragraph
ENCODING 166
SWIDTH 777 0
DWIDTH 7 0
BBX 6 7 0 0
BITMAP
7C
EC
EC
6C
2C
2C
2C
ENDCHAR
STARTCHAR germandbls
ENCODING 167
SWIDTH 888 0
DWIDTH 8 0
BBX 7 7 0 0
BITMAP
78
CC
C8
DC
CE
C6
DC
ENDCHAR
STARTCHAR registered
ENCODING 168
SWIDTH 888 0
DWIDTH 8 0
BBX 7 7 0 -1
BITMAP
38
44
BA
B2
AA
44
38
ENDCHAR
STARTCHAR copyright
ENCODING 169
SWIDTH 888 0
DWIDTH 8 0
BBX 7 7 0 -1
BITMAP
38
44
BA
A2
BA
44
38
ENDCHAR
STARTCHAR trademark
ENCODING 170
SWIDTH 1111 0
DWIDTH 10 0
BBX 9 3 0 4
BITMAP
E880
4D80
4A80
ENDCHAR
STARTCHAR acute
ENCODING 171
SWIDTH 444 0
DWIDTH 4 0
BBX 3 2 0 5
BITMAP
60
80
ENDCHAR
STARTCHAR dieresis
ENCODING 172
SWIDTH 444 0
DWIDTH 4 0
BBX 3 1 0 6
BITMAP
A0
ENDCHAR
STARTCHAR notequal
ENCODING 173
SWIDTH 666 0
DWIDTH 6 0
BBX 5 5 0 1
BITMAP
10
F8
20
F8
40
ENDCHAR
STARTCHAR AE
ENCODING 174
SWIDTH 1222 0
DWIDTH 11 0
BBX 10 7 0 0
BITMAP
1FC0
3600
3600
6780
7E00
C600
C7C0
ENDCHAR
STARTCHAR Oslash
ENCODING 175
SWIDTH 1000 0
DWIDTH 9 0
BBX 8 7 0 0
BITMAP
3D
66
CB
D3
E3
66
BC
ENDCHAR
STARTCHAR infinity
ENCODING 176
SWIDTH 1111 0
DWIDTH 10 0
BBX 9 4 0 2
BITMAP
7300
8C80
9880
6700
ENDCHAR
STARTCHAR plusminus
ENCODING 177
SWIDTH 666 0
DWIDTH 6 0
BBX 5 6 0 1
BITMAP
20
20
F8
20
20
F8
ENDCHAR
STARTCHAR lessequal
ENCODING 178
SWIDTH 666 0
DWIDTH 6 0
BBX 5 7 0 0
BITMAP
08
30
C0
30
08
00
F8
ENDCHAR
STARTCHAR greaterequal
ENCODING 179
SWIDTH 666 0
DWIDTH 6 0
BBX 5 7 0 0
BITMAP
80
60
18
60
80
00
F8
ENDCHAR
STARTCHAR yen
ENCODING 180
SWIDTH 777 0
DWIDTH 7 0
BBX 6 7 0 0
BITMAP
C4
68
FC
30
FC
30
30
ENDCHAR
STARTCHAR mu
ENCODING 181
SWIDTH 666 0
DWIDTH 6 0
BBX 5 7 0 -2
BITMAP
D8
D8
D8
D8
F8
C0
C0
ENDCHAR
STARTCHAR partialdiff
ENCODING 182
SWIDTH 777 0
DWIDTH 7 0
BBX 6 8 0 0
BITMAP
38
0C
0C
7C
CC
CC
CC
78
ENDCHAR
STARTCHAR summation
ENCODING 183
SWIDTH 666 0
DWIDTH 6 0
BBX 5 8 0 -1
BITMAP
F8
C0
60
30
30
60
C0
F8
ENDCHAR
STARTCHAR product
ENCODING 184
SWIDTH 1000 0
DWIDTH 9 0
BBX 8 8 0 -1
BITMAP
FF
66
66
66
66
66
66
66
ENDCHAR
STARTCHAR pi
ENCODING 185
SWIDTH 888 0
DWIDTH 8 0
BBX 7 5 0 0
BITMAP
FE
6C
6C
6C
6C
ENDCHAR
STARTCHAR integral
ENCODING 186
SWIDTH 444 0
DWIDTH 4 0
BBX 4 11 0 -2
BITMAP
30
60
60
60
60
60
60
60
60
60
C0
ENDCHAR
STARTCHAR ordfeminine
ENCODING 187
SWIDTH 666 0
DWIDTH 6 0
BBX 5 5 0 2
BITMAP
78
D8
78
00
F8
ENDCHAR
STARTCHAR ordmasculine
ENCODING 188
SWIDTH 666 0
DWIDTH 6 0
BBX 5 5 0 2
BITMAP
70
D8
70
00
F8
ENDCHAR
STARTCHAR Omega
ENCODING 189
SWIDTH 888 0
DWIDTH 8 0
BBX 7 7 0 0
BITMAP
7C
C6
C6
C6
6C
28
EE
ENDCHAR
STARTCHAR ae
ENCODING 190
SWIDTH 1000 0
DWIDTH 9 0
BBX 8 5 0 0
BITMAP
76
1B
7F
D8
7F
ENDCHAR
STARTCHAR oslash
ENCODING 191
SWIDTH 666 0
DWIDTH 6 0
BBX 7 5 -1 0
BITMAP
3A
6C
7C
6C
B8
ENDCHAR
STARTCHAR questiondown
ENCODING 192
SWIDTH 666 0
DWIDTH 6 0
BBX 5 7 0 -2
BITMAP
30
00
30
30
60
C0
78
ENDCHAR
STARTCHAR exclamdown
ENCODING 193
SWIDTH 333 0
DWIDTH 3 0
BBX 2 7 0 -2
BITMAP
C0
00
C0
C0
C0
C0
C0
ENDCHAR
STARTCHAR logicalnot
ENCODING 194
SWIDTH 666 0
DWIDTH 6 0
BBX 5 3 0 1
BITMAP
F8
08
08
ENDCHAR
STARTCHAR radical
ENCODING 195
SWIDTH 777 0
DWIDTH 7 0
BBX 6 8 0 -1
BITMAP
04
04
08
08
D0
50
20
20
ENDCHAR
STARTCHAR florin
ENCODING 196
SWIDTH 888 0
DWIDTH 8 0
BBX 8 8 -1 -1
BITMAP
07
0C
3E
18
18
30
30
E0
ENDCHAR
STARTCHAR approxequal
ENCODING 197
SWIDTH 777 0
DWIDTH 7 0
BBX 6 5 0 1
BITMAP
64
98
00
64
98
ENDCHAR
STARTCHAR Delta
ENCODING 198
SWIDTH 1000 0
DWIDTH 9 0
BBX 8 7 0 0
BITMAP
18
18
2C
2C
46
46
FF
ENDCHAR
STARTCHAR guillemotleft
ENCODING 199
SWIDTH 888 0
DWIDTH 8 0
BBX 7 5 0 0
BITMAP
36
6C
D8
6C
36
ENDCHAR
STARTCHAR guillemotright
ENCODING 200
SWIDTH 888 0
DWIDTH 8 0
BBX 7 5 0 0
BITMAP
D8
6C
36
6C
D8
ENDCHAR
STARTCHAR ellipsis
ENCODING 201
SWIDTH 1222 0
DWIDTH 11 0
BBX 10 1 0 0
BITMAP
CCC0
ENDCHAR
STARTCHAR nbspace
ENCODING 202
SWIDTH 222 0
DWIDTH 2 0
BBX 0 0 -1 -2
BITMAP
ENDCHAR
STARTCHAR Agrave
ENCODING 203
SWIDTH 888 0
DWIDTH 8 0
BBX 7 10 0 0
BITMAP
30
08
00
38
38
6C
6C
7C
C6
C6
ENDCHAR
STARTCHAR Atilde
ENCODING 204
SWIDTH 888 0
DWIDTH 8 0
BBX 7 10 0 0
BITMAP
34
58
00
38
38
6C
6C
7C
C6
C6
ENDCHAR
STARTCHAR Otilde
ENCODING 205
SWIDTH 1000 0
DWIDTH 9 0
BBX 8 10 0 0
BITMAP
1A
2C
00
3C
66
C3
C3
C3
66
3C
ENDCHAR
STARTCHAR OE
ENCODING 206
SWIDTH 1222 0
DWIDTH 11 0
BBX 10 7 0 0
BITMAP
3FC0
6600
C600
C780
C600
6600
3FC0
ENDCHAR
STARTCHAR oe
ENCODING 207
SWIDTH 1000 0
DWIDTH 9 0
BBX 8 5 0 0
BITMAP
7E
DB
DF
D8
7F
ENDCHAR
STARTCHAR endash
ENCODING 208
SWIDTH 666 0
DWIDTH 6 0
BBX 5 1 0 3
BITMAP
F8
ENDCHAR
STARTCHAR emdash
ENCODING 209
SWIDTH 1111 0
DWIDTH 10 0
BBX 9 1 0 3
BITMAP
FF80
ENDCHAR
STARTCHAR quotedblleft
ENCODING 210
SWIDTH 666 0
DWIDTH 6 0
BBX 4 3 0 5
BITMAP
50
A0
F0
ENDCHAR
STARTCHAR quotedblright
ENCODING 211
SWIDTH 555 0
DWIDTH 5 0
BBX 4 3 0 5
BITMAP
F0
50
A0
ENDCHAR
STARTCHAR quoteleft
ENCODING 212
SWIDTH 333 0
DWIDTH 3 0
BBX 2 3 0 5
BITMAP
40
80
C0
ENDCHAR
STARTCHAR quoteright
ENCODING 213
SWIDTH 333 0
DWIDTH 3 0
BBX 2 3 0 5
BITMAP
C0
40
80
ENDCHAR
STARTCHAR divide
ENCODING 214
SWIDTH 666 0
DWIDTH 6 0
BBX 5 5 0 1
BITMAP
20
00
F8
00
20
ENDCHAR
STARTCHAR lozenge
ENCODING 215
SWIDTH 666 0
DWIDTH 6 0
BBX 5 9 0 -1
BITMAP
20
20
50
50
88
50
50
20
20
ENDCHAR
STARTCHAR ydieresis
ENCODING 216
SWIDTH 666 0
DWIDTH 6 0
BBX 5 9 0 -2
BITMAP
50
00
D8
D8
D8
70
30
60
C0
ENDCHAR
STARTCHAR Ydieresis
ENCODING 217
SWIDTH 777 0
DWIDTH 7 0
BBX 6 9 0 0
BITMAP
48
00
CC
CC
CC
78
30
30
30
ENDCHAR
STARTCHAR fraction
ENCODING 218
SWIDTH 666 0
DWIDTH 6 0
BBX 5 8 0 0
BITMAP
18
18
30
30
60
60
C0
C0
ENDCHAR
STARTCHAR currency
ENCODING 219
SWIDTH 888 0
DWIDTH 8 0
BBX 7 7 0 0
BITMAP
BA
7C
C6
C6
C6
7C
BA
ENDCHAR
STARTCHAR guilsinglleft
ENCODING 220
SWIDTH 555 0
DWIDTH 5 0
BBX 4 5 0 0
BITMAP
30
60
C0
60
30
ENDCHAR
STARTCHAR guilsinglright
ENCODING 221
SWIDTH 555 0
DWIDTH 5 0
BBX 4 5 0 0
BITMAP
C0
60
30
60
C0
ENDCHAR
STARTCHAR fi
ENCODING 222
SWIDTH 777 0
DWIDTH 7 0
BBX 6 7 0 0
BITMAP
3C
60
FC
6C
6C
6C
6C
ENDCHAR
STARTCHAR fl
ENCODING 223
SWIDTH 777 0
DWIDTH 7 0
BBX 6 7 0 0
BITMAP
3C
6C
FC
6C
6C
6C
6C
ENDCHAR
STARTCHAR daggerdbl
ENCODING 224
SWIDTH 888 0
DWIDTH 8 0
BBX 5 5 1 0
BITMAP
F8
F8
F8
F8
F8
ENDCHAR
STARTCHAR periodcentered
ENCODING 225
SWIDTH 222 0
DWIDTH 2 0
BBX 1 1 0 3
BITMAP
80
ENDCHAR
STARTCHAR quotesinglbase
ENCODING 226
SWIDTH 333 0
DWIDTH 3 0
BBX 2 3 0 -2
BITMAP
C0
40
80
ENDCHAR
STARTCHAR quotedblbase
ENCODING 227
SWIDTH 555 0
DWIDTH 5 0
BBX 4 3 0 -2
BITMAP
F0
50
A0
ENDCHAR
STARTCHAR perthousand
ENCODING 228
SWIDTH 1888 0
DWIDTH 17 0
BBX 16 7 0 0
BITMAP
70C0
D980
DB00
76EE
0DBB
19BB
30EE
ENDCHAR
STARTCHAR Acircumflex
ENCODING 229
SWIDTH 888 0
DWIDTH 8 0
BBX 7 10 0 0
BITMAP
10
28
00
38
38
6C
6C
7C
C6
C6
ENDCHAR
STARTCHAR Ecircumflex
ENCODING 230
SWIDTH 666 0
DWIDTH 6 0
BBX 5 10 0 0
BITMAP
20
50
00
F8
C0
C0
F0
C0
C0
F8
ENDCHAR
STARTCHAR Aacute
ENCODING 231
SWIDTH 888 0
DWIDTH 8 0
BBX 7 10 0 0
BITMAP
18
20
00
38
38
6C
6C
7C
C6
C6
ENDCHAR
STARTCHAR Edieresis
ENCODING 232
SWIDTH 666 0
DWIDTH 6 0
BBX 5 9 0 0
BITMAP
50
00
F8
C0
C0
F0
C0
C0
F8
ENDCHAR
STARTCHAR Egrave
ENCODING 233
SWIDTH 666 0
DWIDTH 6 0
BBX 5 10 0 0
BITMAP
30
40
00
F8
C0
C0
F0
C0
C0
F8
ENDCHAR
STARTCHAR Iacute
ENCODING 234
SWIDTH 333 0
DWIDTH 3 0
BBX 3 10 0 0
BITMAP
60
80
00
C0
C0
C0
C0
C0
C0
C0
ENDCHAR
STARTCHAR Icircumflex
ENCODING 235
SWIDTH 333 0
DWIDTH 3 0
BBX 3 10 0 0
BITMAP
40
A0
00
C0
C0
C0
C0
C0
C0
C0
ENDCHAR
STARTCHAR Idieresis
ENCODING 236
SWIDTH 333 0
DWIDTH 3 0
BBX 3 9 0 0
BITMAP
A0
00
C0
C0
C0
C0
C0
C0
C0
ENDCHAR
STARTCHAR Igrave
ENCODING 237
SWIDTH 333 0
DWIDTH 3 0
BBX 3 10 -1 0
BITMAP
C0
20
00
60
60
60
60
60
60
60
ENDCHAR
STARTCHAR Oacute
ENCODING 238
SWIDTH 1000 0
DWIDTH 9 0
BBX 8 10 0 0
BITMAP
0C
10
00
3C
66
C3
C3
C3
66
3C
ENDCHAR
STARTCHAR Ocircumflex
ENCODING 239
SWIDTH 1000 0
DWIDTH 9 0
BBX 8 10 0 0
BITMAP
08
14
00
3C
66
C3
C3
C3
66
3C
ENDCHAR
STARTCHAR apple
ENCODING 240
SWIDTH 777 0
DWIDTH 7 0
BBX 6 7 0 0
BITMAP
08
10
6C
F8
F8
FC
6C
ENDCHAR
STARTCHAR Ograve
ENCODING 241
SWIDTH 1000 0
DWIDTH 9 0
BBX 8 10 0 0
BITMAP
30
08
00
3C
66
C3
C3
C3
66
3C
ENDCHAR
STARTCHAR Uacute
ENCODING 242
SWIDTH 777 0
DWIDTH 7 0
BBX 6 10 0 0
BITMAP
18
20
00
C4
C4
C4
C4
C4
EC
78
ENDCHAR
STARTCHAR Ucircumflex
ENCODING 243
SWIDTH 777 0
DWIDTH 7 0
BBX 6 10 0 0
BITMAP
10
28
00
C4
C4
C4
C4
C4
EC
78
ENDCHAR
STARTCHAR Ugrave
ENCODING 244
SWIDTH 777 0
DWIDTH 7 0
BBX 6 10 0 0
BITMAP
60
10
00
C4
C4
C4
C4
C4
EC
78
ENDCHAR
STARTCHAR dotlessi
ENCODING 245
SWIDTH 333 0
DWIDTH 3 0
BBX 2 5 0 0
BITMAP
C0
C0
C0
C0
C0
ENDCHAR
STARTCHAR circumflex
ENCODING 246
SWIDTH 444 0
DWIDTH 4 0
BBX 3 2 0 5
BITMAP
40
A0
ENDCHAR
STARTCHAR tilde
ENCODING 247
SWIDTH 666 0
DWIDTH 6 0
BBX 5 2 0 5
BITMAP
68
B0
ENDCHAR
STARTCHAR macron
ENCODING 248
SWIDTH 444 0
DWIDTH 4 0
BBX 3 1 0 5
BITMAP
E0
ENDCHAR
STARTCHAR breve
ENCODING 249
SWIDTH 555 0
DWIDTH 5 0
BBX 4 2 0 5
BITMAP
90
60
ENDCHAR
STARTCHAR dotaccent
ENCODING 250
SWIDTH 222 0
DWIDTH 2 0
BBX 1 1 0 5
BITMAP
80
ENDCHAR
STARTCHAR ring
ENCODING 251
SWIDTH 444 0
DWIDTH 4 0
BBX 3 3 0 4
BITMAP
40
A0
40
ENDCHAR
STARTCHAR cedilla
ENCODING 252
SWIDTH 444 0
DWIDTH 4 0
BBX 3 3 0 -2
BITMAP
40
20
C0
ENDCHAR
STARTCHAR hungarumlaut
ENCODING 253
SWIDTH 555 0
DWIDTH 5 0
BBX 4 2 0 5
BITMAP
50
A0
ENDCHAR
STARTCHAR ogonek
ENCODING 254
SWIDTH 444 0
DWIDTH 4 0
BBX 3 3 0 -2
BITMAP
40
80
60
ENDCHAR
STARTCHAR caron
ENCODING 255
SWIDTH 444 0
DWIDTH 4 0
BBX 3 2 0 5
BITMAP
A0
40
ENDCHAR
ENDFONT
